<?xml version="1.0" encoding="iso-8859-1"?>
<!-- Generator: Adobe Illustrator 19.0.0, SVG Export Plug-In . SVG Version: 6.00 Build 0)  -->
<svg version="1.1" id="Layer_1" xmlns="http://www.w3.org/2000/svg" xmlns:xlink="http://www.w3.org/1999/xlink" x="0px" y="0px"
	 viewBox="0 0 186.738 186.738" style="enable-background:new 0 0 186.738 186.738;" xml:space="preserve">
<g>
	<g>
		<g>
			<path d="M77.931,15.586c-34.377,0-62.345,27.968-62.345,62.345c0,2.154,1.745,3.897,3.897,3.897c2.152,0,3.897-1.743,3.897-3.897
				c0-30.08,24.472-54.552,54.552-54.552c2.152,0,3.897-1.743,3.897-3.897S80.083,15.586,77.931,15.586z"/>
			<path d="M135.635,130.125c12.524-13.833,20.227-32.108,20.227-52.194C155.862,34.959,120.901,0,77.931,0
				C34.961,0,0,34.959,0,77.931c0,42.972,34.961,77.931,77.931,77.931c20.086,0,38.36-7.703,52.194-20.227l51.103,51.103l5.51-5.51
				L135.635,130.125z M77.931,148.069c-38.675,0-70.138-31.465-70.138-70.138c0-38.673,31.463-70.138,70.138-70.138
				c38.675,0,70.138,31.465,70.138,70.138C148.069,116.604,116.606,148.069,77.931,148.069z"/>
		</g>
	</g>
</g>
<g>
</g>
<g>
</g>
<g>
</g>
<g>
</g>
<g>
</g>
<g>
</g>
<g>
</g>
<g>
</g>
<g>
</g>
<g>
</g>
<g>
</g>
<g>
</g>
<g>
</g>
<g>
</g>
<g>
</g>
</svg>
